<svg xmlns="http://www.w3.org/2000/svg" width="1128.94" height="1126.939" viewBox="0 0 1128.94 1126.939">
  <defs>
    <style>
      .cls-1 {
        fill: #fff;
        stroke: #000;
        stroke-width: 1px;
        fill-rule: evenodd;
      }
    </style>
  </defs>
  <path id="Twitter_1" data-name="Twitter 1" class="cls-1" d="M1758.02,283.022c-311.48,0-564,252.116-564,563,0,310.929,252.52,562.959,564,562.959s563.96-252.03,563.96-562.959C2321.98,535.138,2069.5,283.022,1758.02,283.022ZM2042.15,732.51c0.28,6.1.39,12.213,0.39,18.352,0,187.5-142.96,403.7-404.39,403.7a402.926,402.926,0,0,1-217.89-63.74,294.33,294.33,0,0,0,33.9,1.96,285.558,285.558,0,0,0,176.53-60.73,142.261,142.261,0,0,1-132.76-98.529,142.727,142.727,0,0,0,64.19-2.433c-65.04-13.041-114.04-70.4-114.04-139.1,0-.626,0-1.208.03-1.808a142.024,142.024,0,0,0,64.38,17.772,141.876,141.876,0,0,1-43.99-189.446,403.706,403.706,0,0,0,292.97,148.23,141.757,141.757,0,0,1-3.68-32.331c0-78.344,63.64-141.866,142.13-141.866a142.073,142.073,0,0,1,103.73,44.788,284.437,284.437,0,0,0,90.28-34.428,142.3,142.3,0,0,1-62.52,78.5,285,285,0,0,0,81.65-22.35A288.581,288.581,0,0,1,2042.15,732.51Z" transform="translate(-1193.53 -282.531)"/>
</svg>
